HIERARCHY
ROOT hip
{
	OFFSET 0.000000 0.000000 0.000000 
	CHANNELS 6 Xposition Yposition Zposition Xrotation Zrotation Yrotation
	JOINT abdomen
	{
		OFFSET 0.000000 3.402643 0.000000 
		CHANNELS 3 Xrotation Zrotation Yrotation
		JOINT chest
		{
			OFFSET 0.000000 8.438565 -0.680529 
			CHANNELS 3 Xrotation Zrotation Yrotation
			JOINT neck
			{
				OFFSET 0.000000 10.207942 -0.272212 
				CHANNELS 3 Xrotation Zrotation Yrotation
				JOINT head
				{
					OFFSET 0.000000 3.130431 0.000000 
					CHANNELS 3 Xrotation Zrotation Yrotation
					End Site
					{
						OFFSET 0.000000 3.130435 0.000000 
					}
				}
			}
			JOINT lCollar
			{
				OFFSET 3.470700 6.669187 -0.816635 
				CHANNELS 3 Yrotation Zrotation Xrotation
				JOINT lShldr
				{
					OFFSET 3.198488 0.000000 0.000000 
					CHANNELS 3 Zrotation Yrotation Xrotation
					JOINT lForeArm
					{
						OFFSET 10.139888 0.000000 0.000000 
						CHANNELS 3 Yrotation Zrotation Xrotation
						JOINT lHand
						{
							OFFSET 8.370511 0.000000 0.000000 
							CHANNELS 3 Zrotation Yrotation Xrotation
							End Site
							{
								OFFSET 4.083176 0.000000 0.000000 
							}
						}
					}
				}
			}
			JOINT rCollar
			{
				OFFSET -3.470700 6.669187 -0.816635 
				CHANNELS 3 Yrotation Zrotation Xrotation
				JOINT rShldr
				{
					OFFSET -3.198488 0.000000 0.000000 
					CHANNELS 3 Zrotation Yrotation Xrotation
					JOINT rForeArm
					{
						OFFSET -10.139888 0.000000 0.000000 
						CHANNELS 3 Yrotation Zrotation Xrotation
						JOINT rHand
						{
							OFFSET -8.370511 0.000000 0.000000 
							CHANNELS 3 Zrotation Yrotation Xrotation
							End Site
							{
								OFFSET -4.083176 0.000000 0.000000 
							}
						}
					}
				}
			}
		}
	}
	JOINT lThigh
	{
		OFFSET 5.308129 -1.633274 1.361059 
		CHANNELS 3 Xrotation Zrotation Yrotation
		JOINT lShin
		{
			OFFSET -2.041588 -20.007561 0.000000 
			CHANNELS 3 Xrotation Zrotation Yrotation
			JOINT lFoot
			{
				OFFSET 0.000000 -19.190928 -1.224953 
				CHANNELS 3 Xrotation Yrotation Zrotation
				End Site
				{
					OFFSET 0.000000 -2.449906 4.627600 
				}
			}
		}
	}
	JOINT rThigh
	{
		OFFSET -5.308129 -1.633274 1.361059 
		CHANNELS 3 Xrotation Zrotation Yrotation
		JOINT rShin
		{
			OFFSET 2.041588 -20.007561 0.000000 
			CHANNELS 3 Xrotation Zrotation Yrotation
			JOINT rFoot
			{
				OFFSET 0.000000 -19.190928 -1.224953 
				CHANNELS 3 Xrotation Yrotation Zrotation
				End Site
				{
					OFFSET 0.000000 -2.449906 4.627600 
				}
			}
		}
	}
}
MOTION
Frames: 15
Frame Time: 0.033333
0.073856 46.203232 0.111230 0.235807 -6.318306 105.285629 0.000000 0.000000 0.000000 -9.531381 -0.298555 6.475909 57.474777 3.932534 -0.077548 -20.197313 -1.566161 -0.467318 -25.017483 -3.684932 24.306009 -84.546257 20.755962 -5.032720 -50.053970 19.899166 50.347820 -11.952999 -9.862755 -57.585941 -7.981406 -2.144817 24.331827 61.279762 -6.614089 67.987358 39.738838 -40.733669 39.233196 40.630283 2.042742 -80.744949 -6.796847 15.971357 22.634552 16.189486 3.324534 0.485464 29.249617 -1.083486 -12.963513 9.464991 4.459741 2.286496 10.057915 1.277959 0.257820 8.113612 -4.227011 4.224873 
0.144272 46.138008 0.161161 -0.324573 -6.835828 105.595001 0.000000 0.000000 0.000000 -10.283216 0.096088 6.564599 57.315773 3.999711 -0.067772 -19.844299 -1.476963 -0.625751 -24.936426 -3.124818 24.578917 -85.071342 20.651917 -4.631302 -49.510479 20.062532 50.372688 -10.304469 -10.265985 -57.919903 -8.187605 -2.263572 24.300177 61.566669 -6.714919 68.197067 39.499912 -40.872799 39.064465 41.071213 1.673851 -80.863907 -6.474663 17.780174 23.447630 16.991926 2.746490 0.275153 30.066544 0.293925 -13.947817 8.594119 5.263981 2.543778 10.573395 0.593913 0.144784 8.140422 -4.102763 4.690479 
0.248926 46.109493 0.182631 -0.629565 -6.903884 106.100517 0.000000 0.000000 0.000000 -10.537253 0.297629 6.604794 57.237686 4.280125 -0.043976 -19.639053 -1.471214 -0.801678 -25.145758 -2.812179 24.728390 -85.383575 20.704990 -4.398544 -49.190933 20.233376 50.600784 -9.490142 -10.354419 -58.115921 -8.544447 -2.188163 24.291046 61.633415 -6.906275 68.265968 39.378468 -41.016823 39.042042 41.296291 1.508850 -80.922966 -5.566861 19.071362 24.065058 17.378059 2.459852 0.192146 30.853870 0.590561 -15.243173 8.378339 5.790752 2.695875 10.864636 0.115796 0.062179 8.196929 -3.994473 5.589379 
0.344880 46.081303 0.174554 -0.777232 -6.972022 106.744049 0.000000 0.000000 0.000000 -10.732618 0.345413 6.614219 57.189491 4.606618 -0.026596 -19.434649 -1.525750 -1.004025 -25.481329 -2.527625 24.878670 -85.665482 20.740009 -4.175293 -48.822327 20.307899 50.585079 -8.868797 -10.138597 -58.323376 -9.018373 -2.250222 24.255541 61.684490 -6.961814 68.314537 39.254253 -40.799942 38.632557 41.258873 1.147354 -80.965355 -4.444682 19.886196 24.536686 17.580700 2.421953 0.193397 31.721481 0.905898 -17.079561 8.086531 6.064930 2.784880 11.361100 -0.275216 0.010912 8.129419 -3.906224 6.724550 
0.441460 46.073132 0.147680 -0.747608 -6.903715 107.393906 0.000000 0.000000 0.000000 -10.742308 0.268646 6.599425 57.216797 4.947369 -0.001825 -19.328451 -1.613551 -1.185772 -25.904612 -2.449440 24.927946 -85.817360 20.859652 -4.059044 -48.570446 20.543659 50.803417 -8.647140 -10.225541 -58.359417 -9.447760 -2.262930 24.227608 61.704750 -6.980127 68.333908 39.159882 -40.771912 38.705902 41.687698 1.158873 -81.006996 -3.506990 20.114000 24.709627 17.440363 2.362879 0.177827 32.190430 1.647160 -17.664268 8.128761 6.060417 2.769669 11.591343 -0.423139 -0.002849 8.153293 -3.792089 7.746305 
0.523250 46.068478 0.114207 -0.668899 -6.894066 107.970337 0.000000 0.000000 0.000000 -10.781294 0.163085 6.580273 57.240467 5.192567 0.019351 -19.222729 -1.727426 -1.324884 -26.213326 -2.445431 24.932253 -85.880890 20.954321 -4.014191 -48.364643 20.723732 51.145535 -8.504695 -10.502105 -58.332596 -9.734680 -2.318823 24.198372 61.734787 -6.997994 68.353027 39.164047 -40.834663 39.091240 42.087360 1.150495 -81.041336 -2.804520 20.032930 24.722685 17.041126 2.177617 0.170661 32.338181 2.605801 -17.881847 8.163372 5.917586 2.734976 11.776556 -0.421417 0.013471 8.086518 -3.865830 8.294697 
0.558166 46.037388 0.062870 -0.443146 -7.402124 108.806618 0.000000 0.000000 0.000000 -11.220898 -0.335263 6.462995 57.184090 5.581745 0.042535 -19.049316 -1.877268 -1.536395 -26.740011 -2.160812 25.000000 -86.195183 20.880074 -3.777433 -48.227242 20.999323 51.388905 -8.785081 -10.427842 -58.253460 -10.192815 -2.466218 24.138937 61.657055 -7.002472 68.296356 39.611244 -40.691891 39.677570 42.282326 1.141321 -81.054031 -2.951406 19.288315 24.371344 16.445984 2.060517 0.177186 32.451473 3.777132 -17.862160 7.665267 5.360909 2.571673 12.024547 -0.216392 0.078939 7.988004 -4.309102 8.578369 
0.587209 46.019821 0.024469 -0.177366 -7.665979 109.496109 0.000000 0.000000 0.000000 -11.338867 -0.746853 6.370449 57.110806 5.868937 0.073108 -18.924768 -2.018004 -1.693012 -27.117950 -1.986880 25.000000 -86.315193 20.786097 -3.686323 -48.163960 21.059023 51.719463 -8.959966 -10.289700 -58.220730 -10.479280 -2.523223 24.118797 61.568676 -6.987881 68.239609 40.128532 -40.893856 40.623989 42.827583 1.416112 -81.066124 -3.117175 18.440266 23.966038 15.897633 1.962716 0.186007 32.386395 5.087214 -17.684607 7.523995 4.811367 2.426372 12.054166 0.056964 0.142934 7.965884 -4.741049 8.693409 
0.616035 46.019035 -0.002330 0.118223 -7.587875 109.973473 0.000000 0.000000 0.000000 -11.076152 -1.063797 6.311716 57.128330 6.048308 0.076676 -18.879408 -2.200837 -1.687710 -27.342903 -1.947475 25.000000 -86.251694 20.691439 -3.734692 -48.077446 20.942272 51.926540 -9.125913 -10.131535 -58.198444 -10.568574 -2.474939 24.121277 61.392002 -6.958839 68.116364 40.720978 -41.146133 41.491077 43.383305 1.475630 -81.116447 -3.224571 17.550152 23.567369 15.686397 1.836147 0.175589 31.891960 7.067983 -17.464684 7.806540 4.362360 2.283117 11.959517 0.367246 0.205100 8.005050 -5.032858 8.657458 
0.640494 46.034832 -0.030187 0.511956 -7.294634 110.334671 0.000000 0.000000 0.000000 -10.549938 -1.372887 6.241916 57.271519 6.152102 0.086771 -18.971329 -2.389521 -1.497094 -27.607843 -2.059066 25.000000 -86.108421 20.718096 -3.841611 -48.007813 20.815842 51.874348 -9.662022 -9.873792 -58.100559 -10.621674 -2.343514 24.138260 61.137180 -6.924484 67.936348 41.221741 -41.393898 42.036568 43.519833 1.475786 -81.124359 -3.429050 16.389368 23.041552 15.741218 1.679436 0.116331 32.217857 9.975053 -19.445375 8.371634 3.844780 2.119503 11.752530 0.779322 0.280156 8.044394 -5.260683 8.447073 
0.654836 46.049541 -0.038956 0.698525 -6.972143 110.451752 0.000000 0.000000 0.000000 -10.081309 -1.432622 6.231161 57.466137 6.165778 0.092967 -19.052612 -2.526218 -1.284684 -27.765722 -2.176793 25.000000 -85.977646 20.793034 -3.942372 -47.997208 20.694689 51.996025 -9.921449 -9.817711 -58.034035 -10.602328 -2.241333 24.166597 60.910767 -6.869111 67.765099 41.683796 -41.655804 42.430378 43.412491 1.534259 -81.094421 -3.799702 15.451187 22.625345 16.102278 1.601199 0.098087 31.979677 12.255347 -20.869711 8.863849 3.592860 2.028915 11.606515 1.118873 0.340859 8.070799 -5.346388 7.963435 
0.669106 46.065086 -0.028027 0.747082 -6.561947 110.314453 0.000000 0.000000 0.000000 -9.592373 -1.309562 6.256395 57.701405 6.085768 0.075205 -19.160919 -2.558299 -1.066030 -27.759174 -2.284991 25.000000 -85.881470 20.964069 -4.014216 -48.170452 20.645315 52.455460 -10.048060 -9.853045 -57.956818 -10.467473 -2.135110 24.190523 60.807289 -6.728570 67.678482 41.726250 -42.005730 42.356277 43.070667 1.816963 -81.025803 -4.092140 14.744729 22.299608 16.453606 1.610863 0.071174 30.893656 13.458790 -20.602518 9.324177 3.583417 2.016912 11.527015 1.394005 0.389051 8.042895 -5.365159 7.304657 
0.688139 46.086761 -0.001825 0.677559 -6.015207 109.899063 0.000000 0.000000 0.000000 -9.005271 -0.993464 6.329286 57.973778 5.852491 0.055064 -19.217556 -2.470554 -0.826168 -27.546331 -2.476079 24.954475 -85.776955 21.321363 -4.090017 -48.594154 20.705181 52.949043 -10.648449 -9.891014 -57.766884 -10.144444 -2.015385 24.227970 60.798950 -6.533931 67.647186 41.335094 -42.329247 41.565105 42.094112 2.097787 -80.874420 -4.541136 13.946545 21.963791 17.113405 1.780169 0.067765 28.881363 14.096842 -19.506058 9.923717 3.796234 2.082493 11.418062 1.550172 0.415840 8.038636 -5.363628 6.347349 
0.695532 46.096596 0.033019 0.451392 -5.624827 109.281181 0.000000 0.000000 0.000000 -8.642940 -0.521356 6.426899 58.176155 5.470432 0.023888 -19.096321 -2.291642 -0.594423 -27.113087 -2.604459 24.879736 -85.741158 21.694811 -4.117416 -49.095531 20.794193 53.312149 -11.530989 -10.019633 -57.489914 -9.678619 -2.007647 24.259243 60.859047 -6.345198 67.663109 40.930756 -42.575695 40.687801 41.068645 2.220720 -80.756447 -5.478393 13.119648 21.569349 18.092176 2.085611 0.088182 26.274393 14.392226 -17.869902 10.247952 4.168098 2.173443 11.411919 1.656069 0.463064 7.986749 -5.329714 5.091821 
0.685204 46.089115 0.052565 0.235478 -5.546829 108.726402 0.000000 0.000000 0.000000 -8.603564 -0.193115 6.503827 58.296642 5.113174 -0.001979 -18.916622 -2.104789 -0.397919 -26.705196 -2.593759 24.873581 -85.843399 21.953859 -4.037824 -49.495308 20.876970 53.518642 -12.387437 -10.077685 -57.232250 -9.286294 -2.134530 24.253380 60.998215 -6.181436 67.725281 40.571831 -42.792412 40.094410 40.667099 2.462865 -80.692764 -6.727884 12.134004 21.110207 18.893976 2.523647 0.107409 23.998718 14.587648 -16.265575 10.169708 4.343448 2.240399 11.570697 1.844005 0.506466 7.861762 -5.350777 3.859357 
